{
    "accessors": [
        {
            "bufferView": 1,
            "byteOffset": 0,
            "componentType": 5123,
            "count": 16251,
            "max": [
                12800
            ],
            "min": [
                0
            ],
            "name": "accessor_buffer_M1_2",
            "type": "SCALAR"
        },
        {
            "bufferView": 0,
            "byteOffset": 0,
            "componentType": 5126,
            "count": 12801,
            "max": [
                9677.6982421875,
                14420.966796875,
                0.3564864695072174
            ],
            "min": [
                29.967632293701172,
                20.9660701751709,
                -0.35745489597320557
            ],
            "name": "accessor_buffer_M1_0",
            "type": "VEC3"
        },
        {
            "bufferView": 3,
            "byteOffset": 0,
            "componentType": 5123,
            "count": 165,
            "max": [
                117
            ],
            "min": [
                0
            ],
            "name": "accessor_buffer_M1.001_2",
            "type": "SCALAR"
        },
        {
            "bufferView": 4,
            "byteOffset": 0,
            "componentType": 5126,
            "count": 14,
            "max": [
                6799.04296875,
                7012.623046875,
                0.11421887576580048
            ],
            "min": [
                5399.041015625,
                6162.62109375,
                0.11421887576580048
            ],
            "name": "accessor_buffer_M3_0",
            "type": "VEC3"
        },
        {
            "bufferView": 5,
            "byteOffset": 0,
            "componentType": 5123,
            "count": 24,
            "max": [
                13
            ],
            "min": [
                0
            ],
            "name": "accessor_buffer_M3_2",
            "type": "SCALAR"
        },
        {
            "bufferView": 4,
            "byteOffset": 12,
            "componentType": 5126,
            "count": 14,
            "max": [
                2.20618335333711e-06,
                0,
                0
            ],
            "min": [
                -2.20618335333711e-06,
                0.0,
                -1.0
            ],
            "name": "accessor_buffer_M3_1",
            "type": "VEC3"
        },
        {
            "bufferView": 2,
            "byteOffset": 0,
            "componentType": 5126,
            "count": 118,
            "max": [
                1237.381591796875,
                373.2680358886719,
                0.33735397458076477
            ],
            "min": [
                238.58154296875,
                173.2680206298828,
                0.33735397458076477
            ],
            "name": "accessor_buffer_M1.001_0",
            "type": "VEC3"
        },
        {
            "bufferView": 2,
            "byteOffset": 12,
            "componentType": 5126,
            "count": 118,
            "max": [
                3.0056261923760985e-09,
                0,
                1.0
            ],
            "min": [
                -2.6169688638333355e-09,
                0.0,
                -1.0
            ],
            "name": "accessor_buffer_M1.001_1",
            "type": "VEC3"
        },
        {
            "bufferView": 0,
            "byteOffset": 12,
            "componentType": 5126,
            "count": 12801,
            "max": [
                1.0,
                1.0,
                1.0
            ],
            "min": [
                -1.0,
                -0.0005881042452529073,
                -1.0
            ],
            "name": "accessor_buffer_M1_1",
            "type": "VEC3"
        }
    ],
    "asset": {
        "version": "2.0"
    },
    "bufferViews": [
        {
            "buffer": 0,
            "byteLength": 307224,
            "byteOffset": 0,
            "byteStride": 24,
            "name": "bufferView_buffer_M1_0",
            "target": 34962
        },
        {
            "buffer": 0,
            "byteLength": 32502,
            "byteOffset": 307224,
            "name": "bufferView_buffer_M1_1",
            "target": 34963
        },
        {
            "buffer": 0,
            "byteLength": 2832,
            "byteOffset": 339726,
            "byteStride": 24,
            "name": "bufferView_buffer_M1.001_0",
            "target": 34962
        },
        {
            "buffer": 0,
            "byteLength": 330,
            "byteOffset": 342558,
            "name": "bufferView_buffer_M1.001_1",
            "target": 34963
        },
        {
            "buffer": 0,
            "byteLength": 336,
            "byteOffset": 342888,
            "byteStride": 24,
            "name": "bufferView_buffer_M3_0",
            "target": 34962
        },
        {
            "buffer": 0,
            "byteLength": 48,
            "byteOffset": 343224,
            "name": "bufferView_buffer_M3_1",
            "target": 34963
        }
    ],
    "buffers": [
        {
            "byteLength": 343272,
            "name": "buffer_combined",
            "uri": "buffer_combined.bin"
        }
    ],
    "materials": [
        {
            "emissiveFactor": [
                0.0,
                0.0,
                0.0
            ],
            "name": "COL0.003",
            "pbrMetallicRoughness": {
                "baseColorFactor": [
                    0.0,
                    0.0,
                    0.0,
                    1.0
                ],
                "metallicFactor": 0.0,
                "roughnessFactor": 1.0
            }
        },
        {
            "emissiveFactor": [
                0.0,
                0.0,
                0.0
            ],
            "name": "COL0",
            "pbrMetallicRoughness": {
                "baseColorFactor": [
                    0.0,
                    0.0,
                    0.0,
                    1.0
                ],
                "metallicFactor": 0.0,
                "roughnessFactor": 1.0
            }
        }
    ],
    "meshes": [
        {
            "name": "M1",
            "primitives": [
                {
                    "attributes": {
                        "NORMAL": 8,
                        "POSITION": 1
                    },
                    "indices": 0,
                    "material": 1,
                    "mode": 4
                }
            ]
        },
        {
            "name": "M1.001",
            "primitives": [
                {
                    "attributes": {
                        "NORMAL": 7,
                        "POSITION": 6
                    },
                    "indices": 2,
                    "material": 0,
                    "mode": 4
                }
            ]
        },
        {
            "name": "M3",
            "primitives": [
                {
                    "attributes": {
                        "NORMAL": 5,
                        "POSITION": 3
                    },
                    "indices": 4,
                    "material": 1,
                    "mode": 4
                }
            ]
        }
    ],
    "nodes": [
        {
            "mesh": 1,
            "name": "M1.I0",
            "rotation": [
                0.0,
                0.0,
                0.0,
                1.0
            ],
            "scale": [
                0.0036000001709908247,
                0.0036040544509887695,
                0.0036040544509887695
            ],
            "translation": [
                -2.53277587890625,
                6.5192999839782715,
                0.0
            ]
        },
        {
            "mesh": 0,
            "name": "M1.I0.001",
            "rotation": [
                0.0,
                0.0,
                0.0,
                1.0
            ],
            "scale": [
                0.0009723494877107441,
                0.0009723494877107441,
                0.0009723494877107441
            ],
            "translation": [
                -4.3890862464904785,
                -7.024456977844238,
                0.0
            ]
        },
        {
            "mesh": 2,
            "name": "M3.I1",
            "rotation": [
                0.0,
                0.0,
                0.0,
                1.0
            ],
            "scale": [
                0.0009723494877107441,
                0.0009723494877107441,
                0.0009723494877107441
            ],
            "translation": [
                -4.3890862464904785,
                -7.024456977844238,
                0.0
            ]
        },
        {
            "children": [
                2,
                1,
                0
            ],
            "matrix": [
                -1.0,
                0.0,
                0.0,
                0.0,
                0.0,
                0.0,
                1.0,
                0.0,
                0.0,
                1.0,
                0.0,
                0.0,
                0.0,
                0.0,
                0.0,
                1.0
            ],
            "name": "Scene_root"
        }
    ],
    "samplers": [
        {
            "name": "default"
        }
    ],
    "scene": 0,
    "scenes": [
        {
            "extras": {
                "active_camera": null,
                "background_color": [
                    0.05087608844041824,
                    0.05087608844041824,
                    0.05087608844041824
                ],
                "frames_per_second": 24
            },
            "name": "Scene",
            "nodes": [
                3
            ]
        }
    ]
}
