{
    "accessors": [
        {
            "bufferView": 1,
            "byteOffset": 0,
            "componentType": 5123,
            "count": 168,
            "max": [
                122
            ],
            "min": [
                0
            ],
            "name": "accessor_buffer_M1_2",
            "type": "SCALAR"
        },
        {
            "bufferView": 0,
            "byteOffset": 0,
            "componentType": 5126,
            "count": 123,
            "max": [
                1188.7886962890625,
                409.67755126953125,
                0.33735397458076477
            ],
            "min": [
                189.38873291015625,
                209.67755126953125,
                0.33735397458076477
            ],
            "name": "accessor_buffer_M1_0",
            "type": "VEC3"
        },
        {
            "bufferView": 4,
            "byteOffset": 12,
            "componentType": 5126,
            "count": 1638,
            "max": [
                0,
                0,
                1.0
            ],
            "min": [
                0.0,
                0.0,
                -1.0
            ],
            "name": "accessor_buffer_M3.001_1",
            "type": "VEC3"
        },
        {
            "bufferView": 3,
            "byteOffset": 0,
            "componentType": 5125,
            "count": 116193,
            "max": [
                78487
            ],
            "min": [
                0
            ],
            "name": "accessor_buffer_M2.001_2",
            "type": "SCALAR"
        },
        {
            "bufferView": 5,
            "byteOffset": 0,
            "componentType": 5123,
            "count": 3396,
            "max": [
                1637
            ],
            "min": [
                0
            ],
            "name": "accessor_buffer_M3.001_2",
            "type": "SCALAR"
        },
        {
            "bufferView": 4,
            "byteOffset": 0,
            "componentType": 5126,
            "count": 1638,
            "max": [
                7089.169921875,
                11262.5927734375,
                0
            ],
            "min": [
                5736.16455078125,
                8519.74609375,
                0.0
            ],
            "name": "accessor_buffer_M3.001_0",
            "type": "VEC3"
        },
        {
            "bufferView": 2,
            "byteOffset": 0,
            "componentType": 5126,
            "count": 78488,
            "max": [
                9021.0205078125,
                14420.421875,
                0
            ],
            "min": [
                21.019397735595703,
                20.42045021057129,
                0.0
            ],
            "name": "accessor_buffer_M2.001_0",
            "type": "VEC3"
        },
        {
            "bufferView": 2,
            "byteOffset": 12,
            "componentType": 5126,
            "count": 78488,
            "max": [
                0,
                0,
                1.0
            ],
            "min": [
                0.0,
                0.0,
                -1.0
            ],
            "name": "accessor_buffer_M2.001_1",
            "type": "VEC3"
        },
        {
            "bufferView": 0,
            "byteOffset": 12,
            "componentType": 5126,
            "count": 123,
            "max": [
                3.0056261923760985e-09,
                0,
                1.0
            ],
            "min": [
                -3.855102459482396e-09,
                0.0,
                -1.0
            ],
            "name": "accessor_buffer_M1_1",
            "type": "VEC3"
        }
    ],
    "asset": {
        "version": "2.0"
    },
    "bufferViews": [
        {
            "buffer": 0,
            "byteLength": 2952,
            "byteOffset": 0,
            "byteStride": 24,
            "name": "bufferView_buffer_M1_0",
            "target": 34962
        },
        {
            "buffer": 0,
            "byteLength": 336,
            "byteOffset": 2952,
            "name": "bufferView_buffer_M1_1",
            "target": 34963
        },
        {
            "buffer": 0,
            "byteLength": 1883712,
            "byteOffset": 3288,
            "byteStride": 24,
            "name": "bufferView_buffer_M2.001_0",
            "target": 34962
        },
        {
            "buffer": 0,
            "byteLength": 464772,
            "byteOffset": 1887000,
            "name": "bufferView_buffer_M2.001_1",
            "target": 34963
        },
        {
            "buffer": 0,
            "byteLength": 39312,
            "byteOffset": 2351772,
            "byteStride": 24,
            "name": "bufferView_buffer_M3.001_0",
            "target": 34962
        },
        {
            "buffer": 0,
            "byteLength": 6792,
            "byteOffset": 2391084,
            "name": "bufferView_buffer_M3.001_1",
            "target": 34963
        }
    ],
    "buffers": [
        {
            "byteLength": 2397876,
            "name": "buffer_combined",
            "uri": "buffer_combined.bin"
        }
    ],
    "materials": [
        {
            "emissiveFactor": [
                0.0,
                0.0,
                0.0
            ],
            "name": "COL0",
            "pbrMetallicRoughness": {
                "baseColorFactor": [
                    0.0,
                    0.0,
                    0.0,
                    1.0
                ],
                "metallicFactor": 0.0,
                "roughnessFactor": 1.0
            }
        },
        {
            "emissiveFactor": [
                0.0,
                0.0,
                0.0
            ],
            "name": "COL0.002",
            "pbrMetallicRoughness": {
                "baseColorFactor": [
                    0.0,
                    0.0,
                    0.0,
                    1.0
                ],
                "metallicFactor": 0.0,
                "roughnessFactor": 1.0
            }
        }
    ],
    "meshes": [
        {
            "name": "M1",
            "primitives": [
                {
                    "attributes": {
                        "NORMAL": 8,
                        "POSITION": 1
                    },
                    "indices": 0,
                    "material": 1,
                    "mode": 4
                }
            ]
        },
        {
            "name": "M2.001",
            "primitives": [
                {
                    "attributes": {
                        "NORMAL": 7,
                        "POSITION": 6
                    },
                    "indices": 3,
                    "material": 0,
                    "mode": 4
                }
            ]
        },
        {
            "name": "M3.001",
            "primitives": [
                {
                    "attributes": {
                        "NORMAL": 2,
                        "POSITION": 5
                    },
                    "indices": 4,
                    "material": 0,
                    "mode": 4
                }
            ]
        }
    ],
    "nodes": [
        {
            "mesh": 0,
            "name": "M1.I0",
            "rotation": [
                0.0,
                0.0,
                0.0,
                1.0
            ],
            "scale": [
                0.003618816612288356,
                0.003618816612288356,
                0.003618816612288356
            ],
            "translation": [
                -2.1995723247528076,
                6.3719329833984375,
                0.0
            ]
        },
        {
            "mesh": 1,
            "name": "M2.I0",
            "rotation": [
                0.0,
                0.0,
                0.0,
                1.0
            ],
            "scale": [
                0.0009691270533949137,
                0.0009691270533949137,
                0.0009691270533949137
            ],
            "translation": [
                -4.375434875488281,
                -6.992137908935547,
                0.0
            ]
        },
        {
            "mesh": 2,
            "name": "M3.I1",
            "rotation": [
                0.0,
                0.0,
                0.0,
                1.0
            ],
            "scale": [
                0.0009691270533949137,
                0.0009691270533949137,
                0.0009691270533949137
            ],
            "translation": [
                -4.375434875488281,
                -6.992137908935547,
                0.0
            ]
        },
        {
            "children": [
                2,
                1,
                0
            ],
            "matrix": [
                -1.0,
                0.0,
                0.0,
                0.0,
                0.0,
                0.0,
                1.0,
                0.0,
                0.0,
                1.0,
                0.0,
                0.0,
                0.0,
                0.0,
                0.0,
                1.0
            ],
            "name": "Scene_root"
        }
    ],
    "samplers": [
        {
            "name": "default"
        }
    ],
    "scene": 0,
    "scenes": [
        {
            "extras": {
                "active_camera": null,
                "background_color": [
                    0.05087608844041824,
                    0.05087608844041824,
                    0.05087608844041824
                ],
                "frames_per_second": 24
            },
            "name": "Scene",
            "nodes": [
                3
            ]
        }
    ]
}
