{
    "accessors": [
        {
            "bufferView": 9,
            "byteOffset": 0,
            "componentType": 5123,
            "count": 264,
            "max": [
                200
            ],
            "min": [
                0
            ],
            "name": "accessor_buffer_M5.001_2",
            "type": "SCALAR"
        },
        {
            "bufferView": 0,
            "byteOffset": 12,
            "componentType": 5126,
            "count": 342,
            "max": [
                3.4326777864635005e-08,
                0,
                1.0
            ],
            "min": [
                -3.263039616285823e-08,
                0.0,
                -1.0
            ],
            "name": "accessor_buffer_M1_1",
            "type": "VEC3"
        },
        {
            "bufferView": 0,
            "byteOffset": 0,
            "componentType": 5126,
            "count": 342,
            "max": [
                1656.381591796875,
                382.2680358886719,
                0.33735397458076477
            ],
            "min": [
                217.3815460205078,
                117.8680191040039,
                0.33735397458076477
            ],
            "name": "accessor_buffer_M1_0",
            "type": "VEC3"
        },
        {
            "bufferView": 4,
            "byteOffset": 12,
            "componentType": 5126,
            "count": 63908,
            "max": [
                9.157256499747746e-06,
                0,
                1.0
            ],
            "min": [
                -9.157256499747746e-06,
                0.0,
                -1.0
            ],
            "name": "accessor_buffer_M1.003_1",
            "type": "VEC3"
        },
        {
            "bufferView": 6,
            "byteOffset": 0,
            "componentType": 5126,
            "count": 1987,
            "max": [
                1049.89306640625,
                16605.16796875,
                0
            ],
            "min": [
                49.89183807373047,
                10505.166015625,
                -2.2589019803303688e-15
            ],
            "name": "accessor_buffer_M3.001_0",
            "type": "VEC3"
        },
        {
            "bufferView": 2,
            "byteOffset": 12,
            "componentType": 5126,
            "count": 478,
            "max": [
                4.078799520357279e-08,
                0,
                1.0
            ],
            "min": [
                -4.290847144261534e-08,
                0.0,
                -1.0
            ],
            "name": "accessor_buffer_M1.001_1",
            "type": "VEC3"
        },
        {
            "bufferView": 1,
            "byteOffset": 0,
            "componentType": 5123,
            "count": 420,
            "max": [
                341
            ],
            "min": [
                0
            ],
            "name": "accessor_buffer_M1_2",
            "type": "SCALAR"
        },
        {
            "bufferView": 8,
            "byteOffset": 12,
            "componentType": 5126,
            "count": 201,
            "max": [
                9.883337883281349e-23,
                0,
                0
            ],
            "min": [
                -3.9569422040244445e-22,
                0.0,
                -1.0
            ],
            "name": "accessor_buffer_M5.001_1",
            "type": "VEC3"
        },
        {
            "bufferView": 5,
            "byteOffset": 0,
            "componentType": 5123,
            "count": 297444,
            "max": [
                63907
            ],
            "min": [
                0
            ],
            "name": "accessor_buffer_M1.003_2",
            "type": "SCALAR"
        },
        {
            "bufferView": 3,
            "byteOffset": 0,
            "componentType": 5123,
            "count": 588,
            "max": [
                477
            ],
            "min": [
                0
            ],
            "name": "accessor_buffer_M1.001_2",
            "type": "SCALAR"
        },
        {
            "bufferView": 8,
            "byteOffset": 0,
            "componentType": 5126,
            "count": 201,
            "max": [
                2848.29833984375,
                14560.0234375,
                0
            ],
            "min": [
                2753.79833984375,
                14047.171875,
                -2.2589019803303688e-15
            ],
            "name": "accessor_buffer_M5.001_0",
            "type": "VEC3"
        },
        {
            "bufferView": 7,
            "byteOffset": 0,
            "componentType": 5123,
            "count": 2607,
            "max": [
                1986
            ],
            "min": [
                0
            ],
            "name": "accessor_buffer_M3.001_2",
            "type": "SCALAR"
        },
        {
            "bufferView": 2,
            "byteOffset": 0,
            "componentType": 5126,
            "count": 478,
            "max": [
                1656.381591796875,
                382.2680358886719,
                0.33735397458076477
            ],
            "min": [
                217.3815460205078,
                117.8680191040039,
                0.33735397458076477
            ],
            "name": "accessor_buffer_M1.001_0",
            "type": "VEC3"
        },
        {
            "bufferView": 4,
            "byteOffset": 0,
            "componentType": 5126,
            "count": 63908,
            "max": [
                21113.115234375,
                16605.1640625,
                1.6641221151528587e-15
            ],
            "min": [
                20.84239387512207,
                2067.2626953125,
                -0.3564864695072174
            ],
            "name": "accessor_buffer_M1.003_0",
            "type": "VEC3"
        },
        {
            "bufferView": 6,
            "byteOffset": 12,
            "componentType": 5126,
            "count": 1987,
            "max": [
                5.914199854321219e-20,
                0,
                1.0
            ],
            "min": [
                -1.2471265093673044e-19,
                0.0,
                -1.0
            ],
            "name": "accessor_buffer_M3.001_1",
            "type": "VEC3"
        }
    ],
    "asset": {
        "version": "2.0"
    },
    "bufferViews": [
        {
            "buffer": 0,
            "byteLength": 8208,
            "byteOffset": 0,
            "byteStride": 24,
            "name": "bufferView_buffer_M1_0",
            "target": 34962
        },
        {
            "buffer": 0,
            "byteLength": 840,
            "byteOffset": 8208,
            "name": "bufferView_buffer_M1_1",
            "target": 34963
        },
        {
            "buffer": 0,
            "byteLength": 11472,
            "byteOffset": 9048,
            "byteStride": 24,
            "name": "bufferView_buffer_M1.001_0",
            "target": 34962
        },
        {
            "buffer": 0,
            "byteLength": 1176,
            "byteOffset": 20520,
            "name": "bufferView_buffer_M1.001_1",
            "target": 34963
        },
        {
            "buffer": 0,
            "byteLength": 1533792,
            "byteOffset": 21696,
            "byteStride": 24,
            "name": "bufferView_buffer_M1.003_0",
            "target": 34962
        },
        {
            "buffer": 0,
            "byteLength": 594888,
            "byteOffset": 1555488,
            "name": "bufferView_buffer_M1.003_1",
            "target": 34963
        },
        {
            "buffer": 0,
            "byteLength": 47688,
            "byteOffset": 2150376,
            "byteStride": 24,
            "name": "bufferView_buffer_M3.001_0",
            "target": 34962
        },
        {
            "buffer": 0,
            "byteLength": 5214,
            "byteOffset": 2198064,
            "name": "bufferView_buffer_M3.001_1",
            "target": 34963
        },
        {
            "buffer": 0,
            "byteLength": 4824,
            "byteOffset": 2203278,
            "byteStride": 24,
            "name": "bufferView_buffer_M5.001_0",
            "target": 34962
        },
        {
            "buffer": 0,
            "byteLength": 528,
            "byteOffset": 2208102,
            "name": "bufferView_buffer_M5.001_1",
            "target": 34963
        }
    ],
    "buffers": [
        {
            "byteLength": 2208630,
            "name": "buffer_combined",
            "uri": "buffer_combined.bin"
        }
    ],
    "cameras": [
        {
            "name": "Camera.002",
            "perspective": {
                "aspectRatio": 1.703595982340029,
                "yfov": 0.5033799409866333,
                "zfar": 100.0,
                "znear": 0.10000000149011612
            },
            "type": "perspective"
        }
    ],
    "materials": [
        {
            "emissiveFactor": [
                0.0,
                0.0,
                0.0
            ],
            "name": "COL0.002",
            "pbrMetallicRoughness": {
                "baseColorFactor": [
                    0.0,
                    0.0,
                    0.0,
                    1.0
                ],
                "metallicFactor": 0.0,
                "roughnessFactor": 1.0
            }
        },
        {
            "emissiveFactor": [
                0.0,
                0.0,
                0.0
            ],
            "name": "COL0.004",
            "pbrMetallicRoughness": {
                "baseColorFactor": [
                    0.0,
                    0.0,
                    0.0,
                    1.0
                ],
                "metallicFactor": 0.0,
                "roughnessFactor": 1.0
            }
        },
        {
            "emissiveFactor": [
                0.0,
                0.0,
                0.0
            ],
            "name": "COL1.002",
            "pbrMetallicRoughness": {
                "baseColorFactor": [
                    0.800000011920929,
                    0.800000011920929,
                    0.0,
                    1.0
                ],
                "metallicFactor": 0.0,
                "roughnessFactor": 1.0
            }
        },
        {
            "emissiveFactor": [
                0.0,
                0.0,
                0.0
            ],
            "name": "COL0",
            "pbrMetallicRoughness": {
                "baseColorFactor": [
                    0.0,
                    0.0,
                    0.0,
                    1.0
                ],
                "metallicFactor": 0.0,
                "roughnessFactor": 1.0
            }
        }
    ],
    "meshes": [
        {
            "name": "M1",
            "primitives": [
                {
                    "attributes": {
                        "NORMAL": 1,
                        "POSITION": 2
                    },
                    "indices": 6,
                    "material": 0,
                    "mode": 4
                }
            ]
        },
        {
            "name": "M1.001",
            "primitives": [
                {
                    "attributes": {
                        "NORMAL": 5,
                        "POSITION": 12
                    },
                    "indices": 9,
                    "material": 3,
                    "mode": 4
                }
            ]
        },
        {
            "name": "M1.003",
            "primitives": [
                {
                    "attributes": {
                        "NORMAL": 3,
                        "POSITION": 13
                    },
                    "indices": 8,
                    "material": 1,
                    "mode": 4
                }
            ]
        },
        {
            "name": "M3.001",
            "primitives": [
                {
                    "attributes": {
                        "NORMAL": 14,
                        "POSITION": 4
                    },
                    "indices": 11,
                    "material": 1,
                    "mode": 4
                }
            ]
        },
        {
            "name": "M5.001",
            "primitives": [
                {
                    "attributes": {
                        "NORMAL": 7,
                        "POSITION": 10
                    },
                    "indices": 0,
                    "material": 2,
                    "mode": 4
                }
            ]
        }
    ],
    "nodes": [
        {
            "camera": 0,
            "name": "Camera",
            "rotation": [
                0.483536034822464,
                0.20870360732078552,
                0.33687159419059753,
                0.7804827094078064
            ],
            "scale": [
                1.0,
                1.0,
                1.0
            ],
            "translation": [
                7.481131553649902,
                -6.5076398849487305,
                5.34366512298584
            ]
        },
        {
            "name": "Lamp",
            "rotation": [
                0.16907575726509094,
                0.27217137813568115,
                0.7558802962303162,
                0.570947527885437
            ],
            "scale": [
                1.0,
                0.9999999403953552,
                1.0
            ],
            "translation": [
                4.076245307922363,
                1.0054539442062378,
                5.903861999511719
            ]
        },
        {
            "mesh": 0,
            "name": "M1.I0",
            "rotation": [
                0.0,
                0.0,
                0.0,
                1.0
            ],
            "scale": [
                0.003050405066460371,
                0.003050405066460371,
                0.003050405066460371
            ],
            "translation": [
                -9.158732414245605,
                -8.833521842956543,
                0.0
            ]
        },
        {
            "mesh": 1,
            "name": "M1.I0.001",
            "rotation": [
                0.0,
                0.0,
                0.0,
                1.0
            ],
            "scale": [
                0.0030618978198617697,
                0.0030618978198617697,
                0.0030618978198617697
            ],
            "translation": [
                2.2330853939056396,
                -8.818389892578125,
                0.0
            ]
        },
        {
            "mesh": 2,
            "name": "M1.I0.002",
            "rotation": [
                0.0,
                0.0,
                0.0,
                1.0
            ],
            "scale": [
                0.0009694876498542726,
                0.0009694876498542726,
                0.0009694876498542726
            ],
            "translation": [
                -10.714573860168457,
                -9.104785919189453,
                0.0
            ]
        },
        {
            "mesh": 3,
            "name": "M3.I1",
            "rotation": [
                0.0,
                0.0,
                0.0,
                1.0
            ],
            "scale": [
                0.0009694876498542726,
                0.0009694876498542726,
                0.0009694876498542726
            ],
            "translation": [
                -10.714573860168457,
                -9.104785919189453,
                0.0
            ]
        },
        {
            "mesh": 4,
            "name": "M5.I2",
            "rotation": [
                0.0,
                0.0,
                0.0,
                1.0
            ],
            "scale": [
                0.0009694876498542726,
                0.0009694876498542726,
                0.0009694876498542726
            ],
            "translation": [
                -10.714573860168457,
                -9.104785919189453,
                0.0
            ]
        },
        {
            "children": [
                3,
                2,
                0,
                1,
                4,
                5,
                6
            ],
            "matrix": [
                -1.0,
                0.0,
                0.0,
                0.0,
                0.0,
                0.0,
                1.0,
                0.0,
                0.0,
                1.0,
                0.0,
                0.0,
                0.0,
                0.0,
                0.0,
                1.0
            ],
            "name": "Scene_root"
        }
    ],
    "samplers": [
        {
            "name": "default"
        }
    ],
    "scene": 0,
    "scenes": [
        {
            "extras": {
                "active_camera": null,
                "background_color": [
                    0.05087608844041824,
                    0.05087608844041824,
                    0.05087608844041824
                ],
                "frames_per_second": 24
            },
            "name": "Scene",
            "nodes": [
                7
            ]
        }
    ]
}
